<?xml version="1.0" encoding="utf-8"?>
<!-- Generator: Adobe Illustrator 24.3.0, SVG Export Plug-In . SVG Version: 6.00 Build 0)  -->
<svg version="1.1" id="Layer_1" xmlns="http://www.w3.org/2000/svg" xmlns:xlink="http://www.w3.org/1999/xlink" x="0px" y="0px"
	 viewBox="0 0 501.4 700.7" style="enable-background:new 0 0 501.4 700.7;" xml:space="preserve">
<style type="text/css">
	.st0{clip-path:url(#a_1_);}
	.st1{fill:url(#SVGID_1_);}
	.st2{fill:url(#SVGID_2_);}
	.st3{fill:url(#SVGID_3_);}
	.st4{fill:url(#SVGID_4_);}
	.st5{fill:url(#SVGID_5_);}
	.st6{fill:url(#SVGID_6_);}
	.st7{fill:url(#SVGID_7_);}
	.st8{fill:url(#SVGID_8_);}
	.st9{fill:url(#SVGID_9_);}
	.st10{fill:url(#SVGID_10_);}
	.st11{fill:url(#SVGID_11_);}
	.st12{fill:url(#SVGID_12_);}
	.st13{fill:url(#SVGID_13_);}
	.st14{fill:url(#SVGID_14_);}
	.st15{fill:url(#SVGID_15_);}
	.st16{fill:url(#SVGID_16_);}
	.st17{fill:url(#SVGID_17_);}
	.st18{fill:url(#SVGID_18_);}
	.st19{fill:url(#SVGID_19_);}
	.st20{fill:url(#SVGID_20_);}
	.st21{fill:url(#SVGID_21_);}
	.st22{fill:url(#SVGID_22_);}
	.st23{fill:url(#SVGID_23_);}
	.st24{fill:url(#SVGID_24_);}
	.st25{fill:url(#SVGID_25_);}
	.st26{fill:url(#SVGID_26_);}
	.st27{fill:url(#SVGID_27_);}
	.st28{fill:url(#SVGID_28_);}
	.st29{fill:url(#SVGID_29_);}
	.st30{fill:url(#SVGID_30_);}
	.st31{fill:url(#SVGID_31_);}
	.st32{fill:url(#SVGID_32_);}
	.st33{fill:url(#SVGID_33_);}
	.st34{fill:url(#SVGID_34_);}
	.st35{fill:url(#SVGID_35_);}
	.st36{fill:url(#SVGID_36_);}
	.st37{fill:url(#SVGID_37_);}
	.st38{fill:url(#SVGID_38_);}
	.st39{fill:url(#SVGID_39_);}
	.st40{fill:url(#SVGID_40_);}
	.st41{fill:url(#SVGID_41_);}
	.st42{fill:url(#SVGID_42_);}
	.st43{fill:url(#SVGID_43_);}
	.st44{fill:url(#SVGID_44_);}
	.st45{fill:url(#SVGID_45_);}
	.st46{fill:url(#SVGID_46_);}
	.st47{fill:url(#SVGID_47_);}
	.st48{fill:url(#SVGID_48_);}
	.st49{fill:url(#SVGID_49_);}
	.st50{fill:url(#SVGID_50_);}
	.st51{fill:url(#SVGID_51_);}
	.st52{fill:url(#SVGID_52_);}
	.st53{fill:url(#SVGID_53_);}
	.st54{fill:url(#SVGID_54_);}
	.st55{fill:url(#SVGID_55_);}
	.st56{fill:url(#SVGID_56_);}
	.st57{fill:url(#SVGID_57_);}
	.st58{fill:url(#SVGID_58_);}
	.st59{fill:url(#SVGID_59_);}
	.st60{fill:url(#SVGID_60_);}
	.st61{fill:url(#SVGID_61_);}
	.st62{fill:url(#SVGID_62_);}
	.st63{fill:url(#SVGID_63_);}
	.st64{fill:url(#SVGID_64_);}
	.st65{fill:url(#SVGID_65_);}
	.st66{fill:url(#SVGID_66_);}
	.st67{fill:url(#SVGID_67_);}
	.st68{fill:url(#SVGID_68_);}
	.st69{fill:url(#SVGID_69_);}
	.st70{fill:url(#SVGID_70_);}
	.st71{fill:url(#SVGID_71_);}
	.st72{fill:url(#SVGID_72_);}
	.st73{fill:url(#SVGID_73_);}
	.st74{fill:url(#SVGID_74_);}
	.st75{fill:url(#SVGID_75_);}
	.st76{fill:url(#SVGID_76_);}
	.st77{fill:url(#SVGID_77_);}
	.st78{fill:url(#SVGID_78_);}
	.st79{fill:url(#SVGID_79_);}
	.st80{fill:url(#SVGID_80_);}
	.st81{fill:url(#SVGID_81_);}
	.st82{fill:url(#SVGID_82_);}
	.st83{opacity:0.8;fill:#E8E8E8;}
	.st84{opacity:0.6;fill:#E8E8E8;}
	.st85{opacity:0.44;fill:#E8E8E8;}
	.st86{opacity:0.33;fill:#E8E8E8;}
	.st87{opacity:0.25;fill:#E8E8E8;}
	.st88{opacity:0.19;fill:#E8E8E8;}
	.st89{opacity:0.14;fill:#E8E8E8;}
	.st90{opacity:9.000000e-02;fill:#E8E8E8;}
	.st91{opacity:5.000000e-02;fill:#E8E8E8;}
</style>
<g>
	<defs>
		<path id="a" d="M1.4,0H500c0.8,0,1.4,1.6,1.4,3.5v693.7c0,1.9-0.6,3.5-1.4,3.5H1.4c-0.8,0-1.4-1.6-1.4-3.5V3.5C0,1.6,0.6,0,1.4,0z
			"/>
	</defs>
	<clipPath id="a_1_">
		<use xlink:href="#a"  style="overflow:visible;"/>
	</clipPath>
	<g class="st0">
		
			<linearGradient id="SVGID_1_" gradientUnits="userSpaceOnUse" x1="-180.3439" y1="128.3127" x2="971.0228" y2="723.3669" gradientTransform="matrix(0.9591 -0.2832 0.2832 0.9591 -89.2766 85.7139)">
			<stop  offset="0" style="stop-color:#8F2E66"/>
			<stop  offset="0.5378" style="stop-color:#54467D"/>
			<stop  offset="1" style="stop-color:#26598F"/>
		</linearGradient>
		<circle class="st1" cx="251.9" cy="351.7" r="745"/>
		
			<linearGradient id="SVGID_2_" gradientUnits="userSpaceOnUse" x1="-188.8874" y1="114.1707" x2="967.6434" y2="741.5764" gradientTransform="matrix(0.9361 -0.285 0.285 0.9361 -79.9854 93.7083)">
			<stop  offset="0" style="stop-color:#8F2E66"/>
			<stop  offset="0.4221" style="stop-color:#604178"/>
			<stop  offset="0.8849" style="stop-color:#31558B"/>
			<stop  offset="1" style="stop-color:#27598F"/>
		</linearGradient>
		<circle class="st2" cx="251.9" cy="351.7" r="739.2"/>
		
			<linearGradient id="SVGID_3_" gradientUnits="userSpaceOnUse" x1="-197.5602" y1="99.4769" x2="963.9719" y2="760.062" gradientTransform="matrix(0.9131 -0.2868 0.2868 0.9131 -70.6942 101.7028)">
			<stop  offset="0" style="stop-color:#8E2F66"/>
			<stop  offset="0.3996" style="stop-color:#634177"/>
			<stop  offset="0.8849" style="stop-color:#32558B"/>
			<stop  offset="1" style="stop-color:#27598F"/>
		</linearGradient>
		<circle class="st3" cx="251.9" cy="351.7" r="733.3"/>
		
			<linearGradient id="SVGID_4_" gradientUnits="userSpaceOnUse" x1="-206.3689" y1="84.1985" x2="959.9987" y2="778.8324" gradientTransform="matrix(0.8901 -0.2886 0.2886 0.8901 -61.403 109.6972)">
			<stop  offset="0" style="stop-color:#8E2F66"/>
			<stop  offset="0.3859" style="stop-color:#644076"/>
			<stop  offset="0.8849" style="stop-color:#32558A"/>
			<stop  offset="1" style="stop-color:#28598E"/>
		</linearGradient>
		<circle class="st4" cx="251.9" cy="351.7" r="727.5"/>
		
			<linearGradient id="SVGID_5_" gradientUnits="userSpaceOnUse" x1="-215.3205" y1="68.3" x2="955.7134" y2="797.8962" gradientTransform="matrix(0.8671 -0.2904 0.2904 0.8671 -52.1118 117.6917)">
			<stop  offset="0" style="stop-color:#8D2F66"/>
			<stop  offset="0.3603" style="stop-color:#673F75"/>
			<stop  offset="0.8849" style="stop-color:#33558A"/>
			<stop  offset="1" style="stop-color:#28598E"/>
		</linearGradient>
		<circle class="st5" cx="251.9" cy="351.7" r="721.7"/>
		
			<linearGradient id="SVGID_6_" gradientUnits="userSpaceOnUse" x1="-224.4217" y1="51.7427" x2="951.1046" y2="817.2617" gradientTransform="matrix(0.8441 -0.2922 0.2922 0.8441 -42.8206 125.6861)">
			<stop  offset="0" style="stop-color:#8D2F66"/>
			<stop  offset="0.3443" style="stop-color:#693E75"/>
			<stop  offset="0.8849" style="stop-color:#33558A"/>
			<stop  offset="1" style="stop-color:#29598E"/>
		</linearGradient>
		<circle class="st6" cx="251.9" cy="351.7" r="715.9"/>
		
			<linearGradient id="SVGID_7_" gradientUnits="userSpaceOnUse" x1="-233.679" y1="34.4845" x2="946.1599" y2="836.9367" gradientTransform="matrix(0.8212 -0.294 0.294 0.8212 -33.5294 133.6806)">
			<stop  offset="0" style="stop-color:#8C3066"/>
			<stop  offset="0.3152" style="stop-color:#6B3E73"/>
			<stop  offset="0.8849" style="stop-color:#34558A"/>
			<stop  offset="1" style="stop-color:#29598E"/>
		</linearGradient>
		<circle class="st7" cx="251.9" cy="351.7" r="710.1"/>
		
			<linearGradient id="SVGID_8_" gradientUnits="userSpaceOnUse" x1="-243.0984" y1="16.4795" x2="940.8658" y2="856.9284" gradientTransform="matrix(0.7982 -0.2959 0.2959 0.7982 -24.2382 141.675)">
			<stop  offset="0" style="stop-color:#8C3066"/>
			<stop  offset="0.2964" style="stop-color:#6D3D73"/>
			<stop  offset="0.8849" style="stop-color:#34558A"/>
			<stop  offset="1" style="stop-color:#2A598D"/>
		</linearGradient>
		<circle class="st8" cx="251.9" cy="351.7" r="704.3"/>
		
			<linearGradient id="SVGID_9_" gradientUnits="userSpaceOnUse" x1="-252.6855" y1="-2.3221" x2="935.2082" y2="877.243" gradientTransform="matrix(0.7752 -0.2977 0.2977 0.7752 -14.947 149.6695)">
			<stop  offset="0" style="stop-color:#8B3066"/>
			<stop  offset="0.2627" style="stop-color:#703B71"/>
			<stop  offset="0.8849" style="stop-color:#35558A"/>
			<stop  offset="1" style="stop-color:#2B598D"/>
		</linearGradient>
		<circle class="st9" cx="251.9" cy="351.7" r="698.6"/>
		
			<linearGradient id="SVGID_10_" gradientUnits="userSpaceOnUse" x1="-262.4447" y1="-21.9745" x2="929.1713" y2="897.8854" gradientTransform="matrix(0.7522 -0.2995 0.2995 0.7522 -5.6558 157.6639)">
			<stop  offset="0" style="stop-color:#8B3166"/>
			<stop  offset="0.2404" style="stop-color:#733B70"/>
			<stop  offset="0.8849" style="stop-color:#355689"/>
			<stop  offset="1" style="stop-color:#2B598D"/>
		</linearGradient>
		<circle class="st10" cx="251.9" cy="351.7" r="692.8"/>
		
			<linearGradient id="SVGID_11_" gradientUnits="userSpaceOnUse" x1="-272.3791" y1="-42.5368" x2="922.7383" y2="918.8586" gradientTransform="matrix(0.7292 -0.3013 0.3013 0.7292 3.6354 165.6584)">
			<stop  offset="0" style="stop-color:#8A3166"/>
			<stop  offset="0.2088" style="stop-color:#753A6F"/>
			<stop  offset="0.8849" style="stop-color:#355689"/>
			<stop  offset="1" style="stop-color:#2C598D"/>
		</linearGradient>
		<circle class="st11" cx="251.9" cy="351.7" r="687.1"/>
		
			<linearGradient id="SVGID_12_" gradientUnits="userSpaceOnUse" x1="-282.4901" y1="-64.0729" x2="915.8917" y2="940.1635" gradientTransform="matrix(0.7062 -0.3031 0.3031 0.7062 12.9266 173.6528)">
			<stop  offset="0" style="stop-color:#8A3166"/>
			<stop  offset="0.1745" style="stop-color:#79396D"/>
			<stop  offset="0.8849" style="stop-color:#365689"/>
			<stop  offset="1" style="stop-color:#2C598C"/>
		</linearGradient>
		<circle class="st12" cx="251.9" cy="351.7" r="681.4"/>
		
			<linearGradient id="SVGID_13_" gradientUnits="userSpaceOnUse" x1="-292.7769" y1="-86.6522" x2="908.6121" y2="961.7975" gradientTransform="matrix(0.6832 -0.3049 0.3049 0.6832 22.2178 181.6473)">
			<stop  offset="0" style="stop-color:#8A3266"/>
			<stop  offset="0.1456" style="stop-color:#7C386C"/>
			<stop  offset="0.8849" style="stop-color:#365689"/>
			<stop  offset="1" style="stop-color:#2D598C"/>
		</linearGradient>
		<circle class="st13" cx="251.9" cy="351.7" r="675.7"/>
		
			<linearGradient id="SVGID_14_" gradientUnits="userSpaceOnUse" x1="-303.2352" y1="-110.3498" x2="900.8797" y2="983.7548" gradientTransform="matrix(0.6603 -0.3067 0.3067 0.6603 31.509 189.6417)">
			<stop  offset="0" style="stop-color:#893266"/>
			<stop  offset="9.578203e-02" style="stop-color:#80366A"/>
			<stop  offset="0.8849" style="stop-color:#375689"/>
			<stop  offset="1" style="stop-color:#2E598C"/>
		</linearGradient>
		<circle class="st14" cx="251.9" cy="351.7" r="670"/>
		
			<linearGradient id="SVGID_15_" gradientUnits="userSpaceOnUse" x1="-313.857" y1="-135.2467" x2="892.6734" y2="1006.0245" gradientTransform="matrix(0.6373 -0.3085 0.3085 0.6373 40.8002 197.6362)">
			<stop  offset="0" style="stop-color:#893267"/>
			<stop  offset="6.041944e-02" style="stop-color:#833569"/>
			<stop  offset="0.8849" style="stop-color:#375688"/>
			<stop  offset="1" style="stop-color:#2E598C"/>
		</linearGradient>
		<circle class="st15" cx="251.9" cy="351.7" r="664.4"/>
		
			<linearGradient id="SVGID_16_" gradientUnits="userSpaceOnUse" x1="-324.6292" y1="-161.4299" x2="883.9714" y2="1028.5897" gradientTransform="matrix(0.6143 -0.3104 0.3104 0.6143 50.0914 205.6306)">
			<stop  offset="0" style="stop-color:#883267"/>
			<stop  offset="0.8849" style="stop-color:#385688"/>
			<stop  offset="1" style="stop-color:#2F598B"/>
		</linearGradient>
		<circle class="st16" cx="251.9" cy="351.7" r="658.7"/>
		
			<linearGradient id="SVGID_17_" gradientUnits="userSpaceOnUse" x1="-335.5323" y1="-188.9926" x2="874.7515" y2="1051.4266" gradientTransform="matrix(0.5913 -0.3122 0.3122 0.5913 59.3825 213.6251)">
			<stop  offset="0" style="stop-color:#883367"/>
			<stop  offset="0.8849" style="stop-color:#385688"/>
			<stop  offset="1" style="stop-color:#2F598B"/>
		</linearGradient>
		<circle class="st17" cx="251.9" cy="351.7" r="653.1"/>
		
			<linearGradient id="SVGID_18_" gradientUnits="userSpaceOnUse" x1="-346.5385" y1="-218.0336" x2="864.9912" y2="1074.5018" gradientTransform="matrix(0.5683 -0.314 0.314 0.5683 68.6737 221.6196)">
			<stop  offset="0" style="stop-color:#873367"/>
			<stop  offset="0.8849" style="stop-color:#395688"/>
			<stop  offset="1" style="stop-color:#30598B"/>
		</linearGradient>
		<circle class="st18" cx="251.9" cy="351.7" r="647.5"/>
		
			<linearGradient id="SVGID_19_" gradientUnits="userSpaceOnUse" x1="-357.61" y1="-248.6572" x2="854.6689" y2="1097.7715" gradientTransform="matrix(0.5453 -0.3158 0.3158 0.5453 77.9649 229.614)">
			<stop  offset="0" style="stop-color:#873367"/>
			<stop  offset="0.8849" style="stop-color:#395688"/>
			<stop  offset="1" style="stop-color:#30598B"/>
		</linearGradient>
		<circle class="st19" cx="251.9" cy="351.7" r="641.9"/>
		
			<linearGradient id="SVGID_20_" gradientUnits="userSpaceOnUse" x1="-368.6963" y1="-280.9721" x2="843.7642" y2="1121.1783" gradientTransform="matrix(0.5223 -0.3176 0.3176 0.5223 87.2561 237.6084)">
			<stop  offset="0" style="stop-color:#863467"/>
			<stop  offset="0.8849" style="stop-color:#395687"/>
			<stop  offset="1" style="stop-color:#31598B"/>
		</linearGradient>
		<circle class="st20" cx="251.9" cy="351.7" r="636.3"/>
		
			<linearGradient id="SVGID_21_" gradientUnits="userSpaceOnUse" x1="-379.7313" y1="-315.0899" x2="832.2588" y2="1144.6495" gradientTransform="matrix(0.4993 -0.3194 0.3194 0.4993 96.5473 245.6029)">
			<stop  offset="0" style="stop-color:#863467"/>
			<stop  offset="0.8849" style="stop-color:#3A5687"/>
			<stop  offset="1" style="stop-color:#32598A"/>
		</linearGradient>
		<circle class="st21" cx="251.9" cy="351.7" r="630.8"/>
		
			<linearGradient id="SVGID_22_" gradientUnits="userSpaceOnUse" x1="-390.63" y1="-351.1228" x2="820.1385" y2="1168.093" gradientTransform="matrix(0.4764 -0.3212 0.3212 0.4764 105.8385 253.5974)">
			<stop  offset="0" style="stop-color:#853467"/>
			<stop  offset="0.8849" style="stop-color:#3A5687"/>
			<stop  offset="1" style="stop-color:#32598A"/>
		</linearGradient>
		<circle class="st22" cx="251.9" cy="351.7" r="625.3"/>
		
			<linearGradient id="SVGID_23_" gradientUnits="userSpaceOnUse" x1="-401.2842" y1="-389.1805" x2="807.3944" y2="1191.3951" gradientTransform="matrix(0.4534 -0.323 0.323 0.4534 115.1297 261.5918)">
			<stop  offset="0" style="stop-color:#853567"/>
			<stop  offset="0.8849" style="stop-color:#3B5687"/>
			<stop  offset="1" style="stop-color:#33598A"/>
		</linearGradient>
		<circle class="st23" cx="251.9" cy="351.7" r="619.7"/>
		
			<linearGradient id="SVGID_24_" gradientUnits="userSpaceOnUse" x1="-411.5576" y1="-429.3652" x2="794.0254" y2="1214.4163" gradientTransform="matrix(0.4304 -0.3249 0.3249 0.4304 124.4209 269.5863)">
			<stop  offset="0" style="stop-color:#843567"/>
			<stop  offset="0.8849" style="stop-color:#3B5687"/>
			<stop  offset="1" style="stop-color:#33598A"/>
		</linearGradient>
		<circle class="st24" cx="251.9" cy="351.7" r="614.3"/>
		
			<linearGradient id="SVGID_25_" gradientUnits="userSpaceOnUse" x1="-421.281" y1="-471.766" x2="780.0407" y2="1236.9877" gradientTransform="matrix(0.4074 -0.3267 0.3267 0.4074 133.7121 277.5807)">
			<stop  offset="0" style="stop-color:#843567"/>
			<stop  offset="0.8849" style="stop-color:#3C5687"/>
			<stop  offset="1" style="stop-color:#345989"/>
		</linearGradient>
		<circle class="st25" cx="251.9" cy="351.7" r="608.8"/>
		
			<linearGradient id="SVGID_26_" gradientUnits="userSpaceOnUse" x1="-430.2462" y1="-516.45" x2="765.4631" y2="1258.9075" gradientTransform="matrix(0.3844 -0.3285 0.3285 0.3844 143.0033 285.5752)">
			<stop  offset="0" style="stop-color:#843567"/>
			<stop  offset="0.8849" style="stop-color:#3C5786"/>
			<stop  offset="1" style="stop-color:#355989"/>
		</linearGradient>
		<circle class="st26" cx="251.9" cy="351.7" r="603.3"/>
		
			<linearGradient id="SVGID_27_" gradientUnits="userSpaceOnUse" x1="-438.2002" y1="-563.4521" x2="750.3326" y2="1279.938" gradientTransform="matrix(0.3614 -0.3303 0.3303 0.3614 152.2945 293.5696)">
			<stop  offset="0" style="stop-color:#833667"/>
			<stop  offset="0.8849" style="stop-color:#3D5786"/>
			<stop  offset="1" style="stop-color:#355989"/>
		</linearGradient>
		<circle class="st27" cx="251.9" cy="351.7" r="597.9"/>
		
			<linearGradient id="SVGID_28_" gradientUnits="userSpaceOnUse" x1="-444.8397" y1="-612.7606" x2="734.7107" y2="1299.8027" gradientTransform="matrix(0.3384 -0.3321 0.3321 0.3384 161.5857 301.5641)">
			<stop  offset="0" style="stop-color:#833667"/>
			<stop  offset="0.8849" style="stop-color:#3D5786"/>
			<stop  offset="1" style="stop-color:#365989"/>
		</linearGradient>
		<circle class="st28" cx="251.9" cy="351.7" r="592.5"/>
		
			<linearGradient id="SVGID_29_" gradientUnits="userSpaceOnUse" x1="-449.8068" y1="-664.3015" x2="718.6841" y2="1318.1863" gradientTransform="matrix(0.3155 -0.3339 0.3339 0.3155 170.8769 309.5585)">
			<stop  offset="0" style="stop-color:#823667"/>
			<stop  offset="0.8849" style="stop-color:#3D5786"/>
			<stop  offset="1" style="stop-color:#365988"/>
		</linearGradient>
		<circle class="st29" cx="251.9" cy="351.7" r="587.1"/>
		
			<linearGradient id="SVGID_30_" gradientUnits="userSpaceOnUse" x1="-452.6859" y1="-717.918" x2="702.3693" y2="1334.7361" gradientTransform="matrix(0.2925 -0.3357 0.3357 0.2925 180.1681 317.553)">
			<stop  offset="0" style="stop-color:#823767"/>
			<stop  offset="0.8849" style="stop-color:#3E5786"/>
			<stop  offset="1" style="stop-color:#375988"/>
		</linearGradient>
		<circle class="st30" cx="251.9" cy="351.7" r="581.8"/>
		
			<linearGradient id="SVGID_31_" gradientUnits="userSpaceOnUse" x1="-453.0057" y1="-773.3487" x2="685.9147" y2="1349.067" gradientTransform="matrix(0.2695 -0.3376 0.3376 0.2695 189.4593 325.5474)">
			<stop  offset="0" style="stop-color:#813767"/>
			<stop  offset="0.8849" style="stop-color:#3E5785"/>
			<stop  offset="1" style="stop-color:#375988"/>
		</linearGradient>
		<circle class="st31" cx="251.9" cy="351.7" r="576.5"/>
		
			<linearGradient id="SVGID_32_" gradientUnits="userSpaceOnUse" x1="-450.2454" y1="-830.2043" x2="669.5029" y2="1360.7721" gradientTransform="matrix(0.2465 -0.3394 0.3394 0.2465 198.7505 333.5419)">
			<stop  offset="0" style="stop-color:#813767"/>
			<stop  offset="0.8849" style="stop-color:#3F5785"/>
			<stop  offset="1" style="stop-color:#385988"/>
		</linearGradient>
		<circle class="st32" cx="251.9" cy="351.7" r="571.2"/>
		
			<linearGradient id="SVGID_33_" gradientUnits="userSpaceOnUse" x1="-443.849" y1="-887.9457" x2="653.3484" y2="1369.4374" gradientTransform="matrix(0.2235 -0.3412 0.3412 0.2235 208.0417 341.5363)">
			<stop  offset="0" style="stop-color:#803767"/>
			<stop  offset="0.8849" style="stop-color:#3F5785"/>
			<stop  offset="1" style="stop-color:#395987"/>
		</linearGradient>
		<circle class="st33" cx="251.9" cy="351.7" r="565.9"/>
		
			<linearGradient id="SVGID_34_" gradientUnits="userSpaceOnUse" x1="-433.2485" y1="-945.8661" x2="637.6919" y2="1374.6633" gradientTransform="matrix(0.2005 -0.343 0.343 0.2005 217.3329 349.5308)">
			<stop  offset="0" style="stop-color:#803867"/>
			<stop  offset="0.8849" style="stop-color:#405785"/>
			<stop  offset="1" style="stop-color:#395987"/>
		</linearGradient>
		<circle class="st34" cx="251.9" cy="351.7" r="560.7"/>
		
			<linearGradient id="SVGID_35_" gradientUnits="userSpaceOnUse" x1="-417.8984" y1="-1003.0845" x2="622.7902" y2="1376.0925" gradientTransform="matrix(0.1775 -0.3448 0.3448 0.1775 226.6241 357.5252)">
			<stop  offset="0" style="stop-color:#7F3867"/>
			<stop  offset="0.8849" style="stop-color:#405785"/>
			<stop  offset="1" style="stop-color:#3A5987"/>
		</linearGradient>
		<circle class="st35" cx="251.9" cy="351.7" r="555.4"/>
		
			<linearGradient id="SVGID_36_" gradientUnits="userSpaceOnUse" x1="-397.32" y1="-1058.552" x2="608.8993" y2="1373.4414" gradientTransform="matrix(0.1546 -0.3466 0.3466 0.1546 235.9153 365.5197)">
			<stop  offset="0" style="stop-color:#7F3867"/>
			<stop  offset="0.8849" style="stop-color:#415785"/>
			<stop  offset="1" style="stop-color:#3A5987"/>
		</linearGradient>
		<circle class="st36" cx="251.9" cy="351.7" r="550.2"/>
		
			<linearGradient id="SVGID_37_" gradientUnits="userSpaceOnUse" x1="-371.1541" y1="-1111.0814" x2="596.2534" y2="1366.5331" gradientTransform="matrix(0.1316 -0.3484 0.3484 0.1316 245.2064 373.5141)">
			<stop  offset="0" style="stop-color:#7F3967"/>
			<stop  offset="0.8849" style="stop-color:#415784"/>
			<stop  offset="1" style="stop-color:#3B5987"/>
		</linearGradient>
		<circle class="st37" cx="251.9" cy="351.7" r="545.1"/>
		
			<linearGradient id="SVGID_38_" gradientUnits="userSpaceOnUse" x1="-339.2161" y1="-1159.3989" x2="585.0403" y2="1355.3275" gradientTransform="matrix(0.1086 -0.3502 0.3502 0.1086 254.4976 381.5086)">
			<stop  offset="0" style="stop-color:#7E3967"/>
			<stop  offset="0.8849" style="stop-color:#415784"/>
			<stop  offset="1" style="stop-color:#3B5986"/>
		</linearGradient>
		<circle class="st38" cx="251.9" cy="351.7" r="540"/>
		
			<linearGradient id="SVGID_39_" gradientUnits="userSpaceOnUse" x1="-301.545" y1="-1202.2201" x2="575.3763" y2="1339.9409" gradientTransform="matrix(8.559316e-02 -0.3521 0.3521 8.559316e-02 263.7888 389.5031)">
			<stop  offset="0" style="stop-color:#7E3967"/>
			<stop  offset="0.8849" style="stop-color:#425784"/>
			<stop  offset="1" style="stop-color:#3C5986"/>
		</linearGradient>
		<circle class="st39" cx="251.9" cy="351.7" r="534.9"/>
		
			<linearGradient id="SVGID_40_" gradientUnits="userSpaceOnUse" x1="-258.4279" y1="-1238.3141" x2="567.2749" y2="1320.6166" gradientTransform="matrix(6.260685e-02 -0.3539 0.3539 6.260685e-02 273.08 397.4975)">
			<stop  offset="0" style="stop-color:#7D3A67"/>
			<stop  offset="0.8849" style="stop-color:#425784"/>
			<stop  offset="1" style="stop-color:#3D5986"/>
		</linearGradient>
		<circle class="st40" cx="251.9" cy="351.7" r="529.8"/>
		
			<linearGradient id="SVGID_41_" gradientUnits="userSpaceOnUse" x1="-210.4079" y1="-1266.592" x2="560.6357" y2="1297.6979" gradientTransform="matrix(3.962054e-02 -0.3557 0.3557 3.962054e-02 282.3712 405.4919)">
			<stop  offset="0" style="stop-color:#7D3A67"/>
			<stop  offset="0.8849" style="stop-color:#435784"/>
			<stop  offset="1" style="stop-color:#3D5986"/>
		</linearGradient>
		<circle class="st41" cx="251.9" cy="351.7" r="524.8"/>
		
			<linearGradient id="SVGID_42_" gradientUnits="userSpaceOnUse" x1="-158.2772" y1="-1286.2346" x2="555.2651" y2="1271.6439" gradientTransform="matrix(1.663423e-02 -0.3575 0.3575 1.663423e-02 291.6624 413.4864)">
			<stop  offset="0" style="stop-color:#7C3A68"/>
			<stop  offset="0.8849" style="stop-color:#435883"/>
			<stop  offset="1" style="stop-color:#3E5A85"/>
		</linearGradient>
		<circle class="st42" cx="251.9" cy="351.7" r="519.8"/>
		
			<linearGradient id="SVGID_43_" gradientUnits="userSpaceOnUse" x1="-103.0281" y1="-1296.7698" x2="550.8956" y2="1242.9978" gradientTransform="matrix(-6.352082e-03 -0.3593 0.3593 -6.352082e-03 300.9536 421.4808)">
			<stop  offset="0" style="stop-color:#7C3A68"/>
			<stop  offset="0.8849" style="stop-color:#445883"/>
			<stop  offset="1" style="stop-color:#3E5A85"/>
		</linearGradient>
		<circle class="st43" cx="251.9" cy="351.7" r="514.8"/>
		
			<linearGradient id="SVGID_44_" gradientUnits="userSpaceOnUse" x1="-45.7786" y1="-1298.1108" x2="547.2155" y2="1212.3458" gradientTransform="matrix(-2.933839e-02 -0.3611 0.3611 -2.933839e-02 310.2448 429.4753)">
			<stop  offset="0" style="stop-color:#7B3B68"/>
			<stop  offset="0.8849" style="stop-color:#445883"/>
			<stop  offset="1" style="stop-color:#3F5A85"/>
		</linearGradient>
		<circle class="st44" cx="251.9" cy="351.7" r="509.9"/>
		
			<linearGradient id="SVGID_45_" gradientUnits="userSpaceOnUse" x1="12.3145" y1="-1290.5513" x2="543.9028" y2="1180.2753" gradientTransform="matrix(-5.232470e-02 -0.3629 0.3629 -5.232470e-02 319.536 437.4698)">
			<stop  offset="0" style="stop-color:#7B3B68"/>
			<stop  offset="0.8849" style="stop-color:#455883"/>
			<stop  offset="1" style="stop-color:#405A85"/>
		</linearGradient>
		<circle class="st45" cx="251.9" cy="351.7" r="505"/>
		
			<linearGradient id="SVGID_46_" gradientUnits="userSpaceOnUse" x1="70.141" y1="-1274.7186" x2="540.6573" y2="1147.3385" gradientTransform="matrix(-7.531102e-02 -0.3647 0.3647 -7.531102e-02 328.8272 445.4642)">
			<stop  offset="0" style="stop-color:#7A3B68"/>
			<stop  offset="0.8849" style="stop-color:#455883"/>
			<stop  offset="1" style="stop-color:#405A84"/>
		</linearGradient>
		<circle class="st46" cx="251.9" cy="351.7" r="500.2"/>
		
			<linearGradient id="SVGID_47_" gradientUnits="userSpaceOnUse" x1="126.7087" y1="-1251.4985" x2="537.2272" y2="1114.0265" gradientTransform="matrix(-9.829733e-02 -0.3666 0.3666 -9.829733e-02 338.1184 453.4586)">
			<stop  offset="0" style="stop-color:#7A3C68"/>
			<stop  offset="0.8849" style="stop-color:#455882"/>
			<stop  offset="1" style="stop-color:#415A84"/>
		</linearGradient>
		<circle class="st47" cx="251.9" cy="351.7" r="495.4"/>
		
			<linearGradient id="SVGID_48_" gradientUnits="userSpaceOnUse" x1="181.1917" y1="-1221.9438" x2="533.4241" y2="1080.7543" gradientTransform="matrix(-0.1213 -0.3684 0.3684 -0.1213 347.4096 461.4531)">
			<stop  offset="0" style="stop-color:#7A3C68"/>
			<stop  offset="0.8849" style="stop-color:#465882"/>
			<stop  offset="1" style="stop-color:#415A84"/>
		</linearGradient>
		<circle class="st48" cx="251.9" cy="351.7" r="490.6"/>
		
			<linearGradient id="SVGID_49_" gradientUnits="userSpaceOnUse" x1="232.955" y1="-1187.1849" x2="529.1285" y2="1047.856" gradientTransform="matrix(-0.1443 -0.3702 0.3702 -0.1443 356.7008 469.4476)">
			<stop  offset="0" style="stop-color:#793C68"/>
			<stop  offset="0.8849" style="stop-color:#465882"/>
			<stop  offset="1" style="stop-color:#425A84"/>
		</linearGradient>
		<circle class="st49" cx="251.9" cy="351.7" r="485.9"/>
		
			<linearGradient id="SVGID_50_" gradientUnits="userSpaceOnUse" x1="281.5558" y1="-1148.3491" x2="524.2862" y2="1015.5892" gradientTransform="matrix(-0.1673 -0.372 0.372 -0.1673 365.992 477.442)">
			<stop  offset="0" style="stop-color:#793D68"/>
			<stop  offset="0.8849" style="stop-color:#475882"/>
			<stop  offset="1" style="stop-color:#425A84"/>
		</linearGradient>
		<circle class="st50" cx="251.9" cy="351.7" r="481.2"/>
		
			<linearGradient id="SVGID_51_" gradientUnits="userSpaceOnUse" x1="326.7283" y1="-1106.5015" x2="518.8982" y2="984.143" gradientTransform="matrix(-0.1902 -0.3738 0.3738 -0.1902 375.2832 485.4365)">
			<stop  offset="0" style="stop-color:#783D68"/>
			<stop  offset="0.8849" style="stop-color:#475882"/>
			<stop  offset="1" style="stop-color:#435A83"/>
		</linearGradient>
		<circle class="st51" cx="251.9" cy="351.7" r="476.6"/>
		
			<linearGradient id="SVGID_52_" gradientUnits="userSpaceOnUse" x1="368.3583" y1="-1062.6027" x2="513.0077" y2="953.6494" gradientTransform="matrix(-0.2132 -0.3756 0.3756 -0.2132 384.5744 493.4309)">
			<stop  offset="0" style="stop-color:#783D68"/>
			<stop  offset="0.8849" style="stop-color:#485882"/>
			<stop  offset="1" style="stop-color:#445A83"/>
		</linearGradient>
		<circle class="st52" cx="251.9" cy="351.7" r="472"/>
		
			<linearGradient id="SVGID_53_" gradientUnits="userSpaceOnUse" x1="406.4527" y1="-1017.4874" x2="506.687" y2="924.1941" gradientTransform="matrix(-0.2362 -0.3774 0.3774 -0.2362 393.8656 501.4254)">
			<stop  offset="0" style="stop-color:#773D68"/>
			<stop  offset="0.8849" style="stop-color:#485881"/>
			<stop  offset="1" style="stop-color:#445A83"/>
		</linearGradient>
		<circle class="st53" cx="251.9" cy="351.7" r="467.4"/>
		
			<linearGradient id="SVGID_54_" gradientUnits="userSpaceOnUse" x1="441.1091" y1="-971.8569" x2="500.0247" y2="895.827" gradientTransform="matrix(-0.2592 -0.3793 0.3793 -0.2592 403.1568 509.4198)">
			<stop  offset="0" style="stop-color:#773E68"/>
			<stop  offset="0.8849" style="stop-color:#495881"/>
			<stop  offset="1" style="stop-color:#455A83"/>
		</linearGradient>
		<circle class="st54" cx="251.9" cy="351.7" r="463"/>
		
			<linearGradient id="SVGID_55_" gradientUnits="userSpaceOnUse" x1="472.4888" y1="-926.2826" x2="493.1159" y2="868.5708" gradientTransform="matrix(-0.2822 -0.3811 0.3811 -0.2822 412.4479 517.4142)">
			<stop  offset="0" style="stop-color:#763E68"/>
			<stop  offset="0.8849" style="stop-color:#495881"/>
			<stop  offset="1" style="stop-color:#455A82"/>
		</linearGradient>
		<circle class="st55" cx="251.9" cy="351.7" r="458.5"/>
		
			<linearGradient id="SVGID_56_" gradientUnits="userSpaceOnUse" x1="500.7934" y1="-881.2162" x2="486.055" y2="842.428" gradientTransform="matrix(-0.3052 -0.3829 0.3829 -0.3052 421.7391 525.4087)">
			<stop  offset="0" style="stop-color:#763E68"/>
			<stop  offset="0.8849" style="stop-color:#495881"/>
			<stop  offset="1" style="stop-color:#465A82"/>
		</linearGradient>
		<circle class="st56" cx="251.9" cy="351.7" r="454.1"/>
		
			<linearGradient id="SVGID_57_" gradientUnits="userSpaceOnUse" x1="526.2466" y1="-837.0042" x2="478.93" y2="817.3867" gradientTransform="matrix(-0.3282 -0.3847 0.3847 -0.3282 431.0303 533.4032)">
			<stop  offset="0" style="stop-color:#753F68"/>
			<stop  offset="0.8849" style="stop-color:#4A5881"/>
			<stop  offset="1" style="stop-color:#465A82"/>
		</linearGradient>
		<circle class="st57" cx="251.9" cy="351.7" r="449.8"/>
		
			<linearGradient id="SVGID_58_" gradientUnits="userSpaceOnUse" x1="549.0806" y1="-793.903" x2="471.8196" y2="793.4243" gradientTransform="matrix(-0.3511 -0.3865 0.3865 -0.3511 440.3215 541.3976)">
			<stop  offset="0" style="stop-color:#753F68"/>
			<stop  offset="0.8849" style="stop-color:#4A5980"/>
			<stop  offset="1" style="stop-color:#475A82"/>
		</linearGradient>
		<circle class="st58" cx="251.9" cy="351.7" r="445.5"/>
		
			<linearGradient id="SVGID_59_" gradientUnits="userSpaceOnUse" x1="569.5256" y1="-752.0945" x2="464.792" y2="770.5116" gradientTransform="matrix(-0.3741 -0.3883 0.3883 -0.3741 449.6127 549.3921)">
			<stop  offset="0" style="stop-color:#753F68"/>
			<stop  offset="0.8849" style="stop-color:#4B5980"/>
			<stop  offset="1" style="stop-color:#485A81"/>
		</linearGradient>
		<circle class="st59" cx="251.9" cy="351.7" r="441.3"/>
		
			<linearGradient id="SVGID_60_" gradientUnits="userSpaceOnUse" x1="587.8038" y1="-711.6997" x2="457.9037" y2="748.6143" gradientTransform="matrix(-0.3971 -0.3901 0.3901 -0.3971 458.9039 557.3865)">
			<stop  offset="0" style="stop-color:#743F68"/>
			<stop  offset="0.8849" style="stop-color:#4B5980"/>
			<stop  offset="1" style="stop-color:#485A81"/>
		</linearGradient>
		<circle class="st60" cx="251.9" cy="351.7" r="437.1"/>
		
			<linearGradient id="SVGID_61_" gradientUnits="userSpaceOnUse" x1="604.1246" y1="-672.7917" x2="451.2008" y2="727.6952" gradientTransform="matrix(-0.4201 -0.3919 0.3919 -0.4201 468.1951 565.381)">
			<stop  offset="0" style="stop-color:#744068"/>
			<stop  offset="0.8849" style="stop-color:#4C5980"/>
			<stop  offset="1" style="stop-color:#495A81"/>
		</linearGradient>
		<circle class="st61" cx="251.9" cy="351.7" r="433"/>
		
			<linearGradient id="SVGID_62_" gradientUnits="userSpaceOnUse" x1="618.6827" y1="-635.4058" x2="444.7191" y2="707.7158" gradientTransform="matrix(-0.4431 -0.3938 0.3938 -0.4431 477.4863 573.3754)">
			<stop  offset="0" style="stop-color:#734068"/>
			<stop  offset="0.8849" style="stop-color:#4C5980"/>
			<stop  offset="1" style="stop-color:#495A81"/>
		</linearGradient>
		<circle class="st62" cx="251.9" cy="351.7" r="429"/>
		
			<linearGradient id="SVGID_63_" gradientUnits="userSpaceOnUse" x1="631.657" y1="-599.5486" x2="438.4857" y2="688.6364" gradientTransform="matrix(-0.4661 -0.3956 0.3956 -0.4661 486.7775 581.3699)">
			<stop  offset="0" style="stop-color:#734068"/>
			<stop  offset="0.8849" style="stop-color:#4D5980"/>
			<stop  offset="1" style="stop-color:#4A5A80"/>
		</linearGradient>
		<circle class="st63" cx="251.9" cy="351.7" r="425"/>
		
			<linearGradient id="SVGID_64_" gradientUnits="userSpaceOnUse" x1="643.2101" y1="-565.2049" x2="432.5194" y2="670.4178" gradientTransform="matrix(-0.4891 -0.3974 0.3974 -0.4891 496.0687 589.3643)">
			<stop  offset="0" style="stop-color:#724168"/>
			<stop  offset="0.8849" style="stop-color:#4D597F"/>
			<stop  offset="1" style="stop-color:#4B5A80"/>
		</linearGradient>
		<circle class="st64" cx="251.9" cy="351.7" r="421.1"/>
		
			<linearGradient id="SVGID_65_" gradientUnits="userSpaceOnUse" x1="653.4894" y1="-532.3439" x2="426.8329" y2="653.0212" gradientTransform="matrix(-0.5121 -0.3992 0.3992 -0.5121 505.3599 597.3588)">
			<stop  offset="0" style="stop-color:#724168"/>
			<stop  offset="0.8849" style="stop-color:#4D597F"/>
			<stop  offset="1" style="stop-color:#4B5A80"/>
		</linearGradient>
		<circle class="st65" cx="251.9" cy="351.7" r="417.2"/>
		
			<linearGradient id="SVGID_66_" gradientUnits="userSpaceOnUse" x1="662.6273" y1="-500.9238" x2="421.4329" y2="636.4087" gradientTransform="matrix(-0.535 -0.401 0.401 -0.535 514.6511 605.3533)">
			<stop  offset="0" style="stop-color:#714168"/>
			<stop  offset="0.8849" style="stop-color:#4E597F"/>
			<stop  offset="1" style="stop-color:#4C5A80"/>
		</linearGradient>
		<circle class="st66" cx="251.9" cy="351.7" r="413.5"/>
		
			<linearGradient id="SVGID_67_" gradientUnits="userSpaceOnUse" x1="670.743" y1="-470.8949" x2="416.3218" y2="620.5434" gradientTransform="matrix(-0.558 -0.4028 0.4028 -0.558 523.9423 613.3477)">
			<stop  offset="0" style="stop-color:#714268"/>
			<stop  offset="0.8849" style="stop-color:#4E597F"/>
			<stop  offset="1" style="stop-color:#4C5A80"/>
		</linearGradient>
		<circle class="st67" cx="251.9" cy="351.7" r="409.8"/>
		
			<linearGradient id="SVGID_68_" gradientUnits="userSpaceOnUse" x1="677.9429" y1="-442.2028" x2="411.4983" y2="605.39" gradientTransform="matrix(-0.581 -0.4046 0.4046 -0.581 533.2335 621.3422)">
			<stop  offset="0" style="stop-color:#704268"/>
			<stop  offset="0.8849" style="stop-color:#4F597F"/>
			<stop  offset="1" style="stop-color:#4D5A7F"/>
		</linearGradient>
		<circle class="st68" cx="251.9" cy="351.7" r="406.1"/>
		
			<linearGradient id="SVGID_69_" gradientUnits="userSpaceOnUse" x1="684.3222" y1="-414.7904" x2="406.958" y2="590.9143" gradientTransform="matrix(-0.604 -0.4065 0.4065 -0.604 542.5247 629.3366)">
			<stop  offset="0" style="stop-color:#704269"/>
			<stop  offset="0.8849" style="stop-color:#4F597E"/>
			<stop  offset="1" style="stop-color:#4D5A7F"/>
		</linearGradient>
		<circle class="st69" cx="251.9" cy="351.7" r="402.6"/>
		
			<linearGradient id="SVGID_70_" gradientUnits="userSpaceOnUse" x1="689.9662" y1="-388.5994" x2="402.6942" y2="577.0839" gradientTransform="matrix(-0.627 -0.4083 0.4083 -0.627 551.8159 637.3311)">
			<stop  offset="0" style="stop-color:#6F4269"/>
			<stop  offset="0.8849" style="stop-color:#50597E"/>
			<stop  offset="1" style="stop-color:#4E5A7F"/>
		</linearGradient>
		<circle class="st70" cx="251.9" cy="351.7" r="399.1"/>
		
			<linearGradient id="SVGID_71_" gradientUnits="userSpaceOnUse" x1="694.9509" y1="-363.5718" x2="398.6986" y2="563.8675" gradientTransform="matrix(-0.65 -0.4101 0.4101 -0.65 561.1071 645.3255)">
			<stop  offset="0" style="stop-color:#6F4369"/>
			<stop  offset="0.8849" style="stop-color:#50597E"/>
			<stop  offset="1" style="stop-color:#4F5A7F"/>
		</linearGradient>
		<circle class="st71" cx="251.9" cy="351.7" r="395.7"/>
		
			<linearGradient id="SVGID_72_" gradientUnits="userSpaceOnUse" x1="699.3442" y1="-339.6501" x2="394.9614" y2="551.2357" gradientTransform="matrix(-0.673 -0.4119 0.4119 -0.673 570.3983 653.3199)">
			<stop  offset="0" style="stop-color:#6F4369"/>
			<stop  offset="0.8849" style="stop-color:#51597E"/>
			<stop  offset="1" style="stop-color:#4F5A7E"/>
		</linearGradient>
		<circle class="st72" cx="251.9" cy="351.7" r="392.3"/>
		
			<linearGradient id="SVGID_73_" gradientUnits="userSpaceOnUse" x1="703.207" y1="-316.7786" x2="391.4721" y2="539.1601" gradientTransform="matrix(-0.6959 -0.4137 0.4137 -0.6959 579.6895 661.3144)">
			<stop  offset="0" style="stop-color:#6E4369"/>
			<stop  offset="0.8849" style="stop-color:#51597E"/>
			<stop  offset="1" style="stop-color:#505A7E"/>
		</linearGradient>
		<circle class="st73" cx="251.9" cy="351.7" r="389.1"/>
		
			<linearGradient id="SVGID_74_" gradientUnits="userSpaceOnUse" x1="706.5938" y1="-294.9035" x2="388.2192" y2="527.614" gradientTransform="matrix(-0.7189 -0.4155 0.4155 -0.7189 588.9807 669.3088)">
			<stop  offset="0" style="stop-color:#6E4469"/>
			<stop  offset="0.8849" style="stop-color:#515A7D"/>
			<stop  offset="1" style="stop-color:#505A7E"/>
		</linearGradient>
		<circle class="st74" cx="251.9" cy="351.7" r="385.9"/>
		
			<linearGradient id="SVGID_75_" gradientUnits="userSpaceOnUse" x1="709.5533" y1="-273.973" x2="385.1913" y2="516.5719" gradientTransform="matrix(-0.7419 -0.4173 0.4173 -0.7419 598.2719 677.3033)">
			<stop  offset="0" style="stop-color:#6D4469"/>
			<stop  offset="0.8849" style="stop-color:#525A7D"/>
			<stop  offset="1" style="stop-color:#515A7E"/>
		</linearGradient>
		<circle class="st75" cx="251.9" cy="351.7" r="382.9"/>
		
			<linearGradient id="SVGID_76_" gradientUnits="userSpaceOnUse" x1="712.1293" y1="-253.9377" x2="382.3763" y2="506.0096" gradientTransform="matrix(-0.7649 -0.4191 0.4191 -0.7649 607.563 685.2978)">
			<stop  offset="0" style="stop-color:#6D4469"/>
			<stop  offset="0.8849" style="stop-color:#525A7D"/>
			<stop  offset="1" style="stop-color:#525A7D"/>
		</linearGradient>
		<circle class="st76" cx="251.9" cy="351.7" r="379.9"/>
		
			<linearGradient id="SVGID_77_" gradientUnits="userSpaceOnUse" x1="714.3612" y1="-234.7506" x2="379.7624" y2="495.9042" gradientTransform="matrix(-0.7879 -0.421 0.421 -0.7879 616.8542 693.2922)">
			<stop  offset="0" style="stop-color:#6C4569"/>
			<stop  offset="0.8849" style="stop-color:#535A7D"/>
			<stop  offset="1" style="stop-color:#525A7D"/>
		</linearGradient>
		<circle class="st77" cx="251.9" cy="351.7" r="377"/>
		
			<linearGradient id="SVGID_78_" gradientUnits="userSpaceOnUse" x1="716.2845" y1="-216.3671" x2="377.3377" y2="486.2338" gradientTransform="matrix(-0.8109 -0.4228 0.4228 -0.8109 626.1454 701.2867)">
			<stop  offset="0" style="stop-color:#6C4569"/>
			<stop  offset="0.8849" style="stop-color:#535A7D"/>
			<stop  offset="1" style="stop-color:#535A7D"/>
		</linearGradient>
		<circle class="st78" cx="251.9" cy="351.7" r="374.2"/>
		
			<linearGradient id="SVGID_79_" gradientUnits="userSpaceOnUse" x1="717.9313" y1="-198.7448" x2="375.0909" y2="476.9777" gradientTransform="matrix(-0.8339 -0.4246 0.4246 -0.8339 635.4366 709.2811)">
			<stop  offset="0" style="stop-color:#6B4569"/>
			<stop  offset="0.8849" style="stop-color:#545A7D"/>
			<stop  offset="1" style="stop-color:#535A7D"/>
		</linearGradient>
		<circle class="st79" cx="251.9" cy="351.7" r="371.5"/>
		
			<linearGradient id="SVGID_80_" gradientUnits="userSpaceOnUse" x1="719.3303" y1="-181.8438" x2="373.0103" y2="468.1161" gradientTransform="matrix(-0.8568 -0.4264 0.4264 -0.8568 644.7278 717.2756)">
			<stop  offset="0" style="stop-color:#6B4569"/>
			<stop  offset="0.8849" style="stop-color:#545A7C"/>
			<stop  offset="1" style="stop-color:#545A7C"/>
		</linearGradient>
		<circle class="st80" cx="251.9" cy="351.7" r="368.9"/>
		
			<linearGradient id="SVGID_81_" gradientUnits="userSpaceOnUse" x1="720.5077" y1="-165.6263" x2="371.0851" y2="459.6304" gradientTransform="matrix(-0.8798 -0.4282 0.4282 -0.8798 654.019 725.27)">
			<stop  offset="0" style="stop-color:#6A4669"/>
			<stop  offset="0.8849" style="stop-color:#555A7C"/>
			<stop  offset="1" style="stop-color:#545A7C"/>
		</linearGradient>
		<circle class="st81" cx="251.9" cy="351.7" r="366.4"/>
		
			<linearGradient id="SVGID_82_" gradientUnits="userSpaceOnUse" x1="721.4873" y1="-150.0564" x2="369.3047" y2="451.5025" gradientTransform="matrix(-0.9028 -0.43 0.43 -0.9028 663.3102 733.2645)">
			<stop  offset="0" style="stop-color:#6A4669"/>
			<stop  offset="0.8849" style="stop-color:#555A7C"/>
		</linearGradient>
		<circle class="st82" cx="251.9" cy="351.7" r="364"/>
	</g>
</g>
<path class="st83" d="M258.3,472.6c-4.2,0-8.4-0.9-12.3-2.8l-83.1-40.5c-9-4.4-15-13.3-15.7-23.3l-6.4-92.2
	c-0.7-10,4-19.7,12.3-25.3l76.6-51.7c8.3-5.6,19-6.3,28-2l83.1,40.5c9,4.4,15,13.3,15.7,23.3l6.4,92.2c0.7,10-4,19.7-12.3,25.3
	L274,467.8C269.3,471,263.8,472.6,258.3,472.6z M245.4,232.5c-5.4,0-10.8,1.6-15.5,4.7l-76.6,51.7c-8.2,5.5-12.8,15-12.1,24.9
	l6.4,92.2c0.7,9.8,6.6,18.6,15.5,22.9l83.1,40.5c8.9,4.3,19.4,3.6,27.6-1.9l76.6-51.7c8.2-5.5,12.8-15,12.1-24.9l-6.4-92.2
	c-0.7-9.8-6.6-18.6-15.5-22.9l-83.1-40.5C253.7,233.4,249.6,232.5,245.4,232.5z"/>
<path class="st84" d="M271,481.4c-3.3,0-6.7-0.5-9.9-1.7l-95-32.7c-10.3-3.5-18-12.4-20-23l-19.2-98.6c-2.1-10.7,1.7-21.7,9.9-28.9
	l75.8-65.9c8.2-7.1,19.7-9.4,30-5.8l95,32.7c10.3,3.5,18,12.4,20,23l19.2,98.6c2.1,10.7-1.7,21.7-9.9,28.9L291.1,474
	C285.4,478.8,278.3,481.4,271,481.4z M232.7,223.6c-7.2,0-14.2,2.5-19.8,7.4l-75.8,65.9c-8.1,7-11.8,17.9-9.8,28.5l19.2,98.6
	c2,10.5,9.6,19.2,19.7,22.7l95,32.7c10.1,3.5,21.5,1.3,29.5-5.7l75.8-65.9c8.1-7,11.8-17.9,9.8-28.5l-19.2-98.6
	c-2-10.5-9.6-19.2-19.7-22.7l-95-32.7C239.3,224.2,236,223.6,232.7,223.6z"/>
<path class="st85" d="M285.6,489.3c-2.3,0-4.6-0.2-6.9-0.7l-106.8-22.7c-11.6-2.5-21-11-24.7-22.2l-33.7-103.8
	c-3.7-11.2-1-23.7,6.9-32.4l73.1-81.1c7.9-8.8,20-12.7,31.6-10.3l106.8,22.7c11.6,2.5,21,11,24.7,22.2l33.7,103.8
	c3.7,11.2,1,23.7-6.9,32.4l-73.1,81.1l-0.2-0.1l0.2,0.1C303.9,485.4,294.9,489.3,285.6,489.3z M218.2,215.7
	c-9.2,0-18.1,3.9-24.4,10.8l-73.1,81.1c-7.8,8.7-10.4,20.9-6.8,32l33.7,103.8c3.6,11.1,12.9,19.5,24.3,21.9l106.8,22.7
	c11.4,2.4,23.3-1.5,31.1-10.1l73.1-81.1c7.8-8.7,10.4-20.9,6.8-32l-33.7-103.8c-3.6-11.1-12.9-19.5-24.3-21.9l-106.8-22.7
	C222.7,216,220.4,215.7,218.2,215.7z"/>
<path class="st86" d="M302,495.9c-1,0-2.1,0-3.1-0.1l-118.2-10.3c-12.8-1.1-24.1-9-29.5-20.7L101,357.2c-5.4-11.6-4.2-25.4,3.1-35.9
	l68.1-97.2c7.4-10.5,19.9-16.3,32.7-15.2l118.2,10.3c12.8,1.1,24.1,9,29.5,20.7l50.2,107.6c5.4,11.6,4.2,25.4-3.1,35.9l-68.1,97.2
	C324.8,490.2,313.7,495.9,302,495.9z M101.4,357l50.2,107.6c5.4,11.5,16.5,19.3,29.2,20.4l118.2,10.3c12.6,1.1,25-4.7,32.3-15
	l68.1-97.2c7.3-10.4,8.5-24,3.1-35.5L352.2,240c-5.4-11.5-16.5-19.3-29.2-20.4l-118.2-10.3c-12.6-1.1-25,4.7-32.3,15l-68.1,97.2
	C97.2,331.9,96,345.5,101.4,357z"/>
<path class="st87" d="M191.3,505.4c-13.4,0-26.1-7-33.2-18.4L89.7,377.6c-7.4-11.8-7.9-26.8-1.4-39.1l60.6-113.9
	c6.5-12.3,19.3-20.3,33.2-20.7l128.9-4.5c13.9-0.5,27.2,6.6,34.6,18.4L414,327.1c7.4,11.8,7.9,26.8,1.4,39.1l-60.6,113.9
	c-6.5,12.3-19.3,20.3-33.2,20.7l-128.9,4.5C192.2,505.3,191.8,505.4,191.3,505.4z M311.1,199.5l0,0.2l-128.9,4.5
	c-13.8,0.5-26.4,8.3-32.8,20.5L88.8,338.6c-6.5,12.2-6,27,1.4,38.7l68.4,109.4c7.3,11.7,20.4,18.7,34.2,18.2l128.9-4.5
	c13.8-0.5,26.4-8.3,32.8-20.5L415,366c6.5-12.2,6-27-1.4-38.7l-68.4-109.4c-7.3-11.7-20.4-18.7-34.2-18.2L311.1,199.5z"/>
<path class="st88" d="M201.7,525.7c-12.7,0-25-5.7-33.1-15.8L80.3,401c-9.5-11.8-12.1-27.9-6.7-42l50.2-130.9
	c5.4-14.1,18.1-24.4,33.1-26.8l138.5-21.9c15-2.4,30.2,3.5,39.7,15.2l88.2,109c9.5,11.8,12.1,27.9,6.7,42l-50.2,130.9l-0.2-0.1
	l0.2,0.1c-5.4,14.1-18.1,24.4-33.1,26.8l-138.5,21.9C206.1,525.6,203.9,525.7,201.7,525.7z M302.1,179.3c-2.2,0-4.4,0.2-6.5,0.5
	L157,201.8c-14.8,2.3-27.3,12.5-32.7,26.5L74.1,359.2c-5.4,14-2.8,29.9,6.6,41.6l88.2,109c9.4,11.6,24.5,17.4,39.3,15.1l138.5-21.9
	c14.8-2.3,27.3-12.5,32.7-26.5l50.2-130.9c5.4-14,2.8-29.9-6.6-41.6l-88.2-109C326.8,185,314.7,179.3,302.1,179.3z"/>
<path class="st89" d="M215.1,546.4c-11.8,0-23.4-4.5-32.2-13L73.3,427.6c-11.8-11.4-16.7-28.5-12.7-44.4l36.9-147.9
	c4-16,16.3-28.7,32.1-33.2L276,160c15.8-4.5,33-0.3,44.8,11.2L430.5,277c11.8,11.4,16.7,28.5,12.7,44.4l-36.9,147.9
	c-4,16-16.3,28.7-32.1,33.2l-146.5,42C223.6,545.8,219.3,546.4,215.1,546.4z M288.7,158.7c-4.2,0-8.4,0.6-12.6,1.8l-146.5,42
	c-15.7,4.5-27.9,17.1-31.8,32.9L61,383.2c-3.9,15.8,0.9,32.7,12.6,44l109.6,105.9c11.7,11.3,28.7,15.6,44.4,11.1l146.5-42
	c15.7-4.5,27.9-17.1,31.8-32.9l36.9-147.9c3.9-15.8-0.9-32.7-12.6-44L320.5,171.5C311.9,163.2,300.4,158.7,288.7,158.7z"/>
<path class="st90" d="M231.7,566.9c-10.8,0-21.4-3.4-30.3-10.1L69.2,457.1c-14.3-10.8-21.8-28.5-19.6-46.2l20.2-164.4
	c2.2-17.8,13.8-33.1,30.2-40.1l152.5-64.7l0.1,0.2l-0.1-0.2c16.5-7,35.6-4.6,49.8,6.1l132.3,99.7c14.3,10.8,21.8,28.5,19.6,46.2
	L434,458.1c-2.2,17.8-13.8,33.1-30.2,40.1L251.3,563C245,565.6,238.4,566.9,231.7,566.9z M272,138.1c-6.6,0-13.2,1.3-19.4,3.9
	l-152.5,64.7c-16.3,6.9-27.8,22.2-30,39.8L50,411c-2.2,17.6,5.3,35.1,19.4,45.8l132.3,99.7c14.2,10.7,33.1,13,49.4,6.1l152.5-64.7
	c16.3-6.9,27.8-22.2,30-39.8l20.2-164.4c2.2-17.6-5.3-35.1-19.4-45.8L302,148.1C293.3,141.5,282.7,138.1,272,138.1z"/>
<path class="st91" d="M251.9,586.9c-9.4,0-18.9-2.4-27.3-7.3l-155.9-90c-16.8-9.7-27.3-27.8-27.3-47.3V262.3
	c0-19.4,10.5-37.5,27.3-47.3l155.9-90c16.8-9.7,37.7-9.7,54.6,0l155.9,90c16.8,9.7,27.3,27.8,27.3,47.3v180.1
	c0,19.4-10.5,37.5-27.3,47.3l-155.9,90C270.7,584.5,261.3,586.9,251.9,586.9z M251.9,118.1c-9.4,0-18.7,2.4-27.1,7.2l-155.9,90
	C52.2,225,41.8,243,41.8,262.3v180.1c0,19.3,10.4,37.2,27.1,46.9l155.9,90c16.7,9.6,37.4,9.6,54.1,0l155.9-90
	c16.7-9.6,27.1-27.6,27.1-46.9V262.3c0-19.3-10.4-37.2-27.1-46.9l-155.9-90C270.6,120.5,261.2,118.1,251.9,118.1z"/>
</svg>
